<?xml version="1.0" encoding="iso-8859-1"?>
<!-- Uploaded to: SVG Repo, www.svgrepo.com, Generator: SVG Repo Mixer Tools -->
<svg height="800px" width="800px" version="1.1" id="Layer_1" xmlns="http://www.w3.org/2000/svg" xmlns:xlink="http://www.w3.org/1999/xlink" 
	 viewBox="0 0 512 512" xml:space="preserve">
<g>
	<g>
		<polygon style="fill:#F0C419;" points="256,275.448 273.152,325.995 326.621,328.414 282.483,363.724 300.138,416.69 256,381.689 
			211.862,416.69 229.517,363.724 185.379,328.414 238.848,325.995 		"/>
		<path style="fill:#F0C419;" d="M114.759,157.103L114.759,157.103h-0.009c-29.246-0.009-52.957-23.72-52.957-52.966v-35.31l0,0
			c29.255,0,52.966,23.711,52.966,52.966V157.103z"/>
		<path style="fill:#F0C419;" d="M81.44,238.577L81.44,238.577c-28.398,7.027-57.106-10.302-64.132-38.7l-8.483-34.278l0,0
			c28.398-7.018,57.114,10.302,64.141,38.7L81.44,238.577z"/>
		<path style="fill:#F0C419;" d="M92.893,319.8L92.893,319.8c-24.391,16.146-57.256,9.463-73.401-14.927L0,275.424l0,0
			c24.391-16.146,57.256-9.463,73.401,14.936L92.893,319.8z"/>
		<path style="fill:#F0C419;" d="M139.742,397.312L139.742,397.312c-14.627,25.335-47.016,34.013-72.351,19.385l-30.579-17.655l0,0
			c14.627-25.335,47.016-34.013,72.351-19.385L139.742,397.312z"/>
		<path style="fill:#F0C419;" d="M97.103,195.592c14.645-25.326,42.002-41.631,69.694-32.194l33.412,11.405l0,0
			c-9.437,27.683-39.539,42.47-67.222,33.024L97.103,195.592z"/>
		<path style="fill:#F0C419;" d="M94.263,313.973L94.263,313.973c28.31,7.353,57.229-9.631,64.583-37.941l8.881-34.18
			c-28.31-7.353-57.229,9.631-64.583,37.95L94.263,313.973z"/>
		<path style="fill:#F0C419;" d="M397.241,157.103L397.241,157.103h0.009c29.246-0.009,52.957-23.72,52.957-52.966v-35.31
			c-29.255,0-52.966,23.711-52.966,52.966V157.103z"/>
		<path style="fill:#F0C419;" d="M430.56,238.577L430.56,238.577c28.398,7.027,57.106-10.302,64.132-38.7l8.483-34.278
			c-28.398-7.018-57.114,10.302-64.141,38.7L430.56,238.577z"/>
		<path style="fill:#F0C419;" d="M419.107,319.8L419.107,319.8c24.391,16.146,57.256,9.463,73.401-14.927L512,275.424l0,0
			c-24.391-16.146-57.256-9.463-73.401,14.936L419.107,319.8z"/>
		<path style="fill:#F0C419;" d="M372.258,397.312L372.258,397.312c14.627,25.335,47.016,34.013,72.351,19.385l30.579-17.655l0,0
			c-14.627-25.335-47.016-34.013-72.351-19.385L372.258,397.312z"/>
		<path style="fill:#F0C419;" d="M414.897,195.592c-14.645-25.326-42.002-41.631-69.694-32.194l-33.412,11.405l0,0
			c9.437,27.683,39.539,42.47,67.222,33.024L414.897,195.592z"/>
		<path style="fill:#F0C419;" d="M417.737,313.973L417.737,313.973c-28.31,7.353-57.229-9.631-64.583-37.941l-8.881-34.18
			c28.31-7.353,57.229,9.631,64.583,37.95L417.737,313.973z"/>
	</g>
	<g>
		<path style="fill:#B19046;" d="M176.547,443.173c-2.039,0-4.087-0.706-5.747-2.136c-76.235-65.536-93.44-133.65-94.446-179.244
			c-1.201-54.528,20.25-106.593,58.845-142.848c3.549-3.328,9.137-3.16,12.473,0.388c3.337,3.558,3.169,9.145-0.388,12.482
			c-34.948,32.83-54.369,80.066-53.274,129.589c0.927,42.002,16.993,104.951,88.294,166.25c3.699,3.178,4.122,8.748,0.945,12.447
			C181.5,442.131,179.028,443.173,176.547,443.173"/>
		<path style="fill:#B19046;" d="M335.453,443.173c2.039,0,4.087-0.706,5.747-2.136c76.235-65.536,93.44-133.65,94.446-179.244
			c1.201-54.528-20.25-106.593-58.845-142.848c-3.549-3.328-9.137-3.16-12.473,0.388c-3.337,3.558-3.169,9.145,0.388,12.482
			c34.948,32.83,54.369,80.066,53.274,129.589c-0.927,42.002-16.993,104.951-88.294,166.25c-3.699,3.178-4.122,8.748-0.945,12.447
			C330.5,442.131,332.972,443.173,335.453,443.173"/>
	</g>
</g>
</svg>