<!DOCTYPE svg PUBLIC "-//W3C//DTD SVG 1.1//EN" "http://www.w3.org/Graphics/SVG/1.1/DTD/svg11.dtd">
<!-- Uploaded to: SVG Repo, www.svgrepo.com, Transformed by: SVG Repo Mixer Tools -->
<svg version="1.1" id="Uploaded to svgrepo.com" xmlns="http://www.w3.org/2000/svg" xmlns:xlink="http://www.w3.org/1999/xlink" width="800px" height="800px" viewBox="0 0 32 32" xml:space="preserve" fill="#000000">
<g id="SVGRepo_bgCarrier" stroke-width="0"/>
<g id="SVGRepo_tracerCarrier" stroke-linecap="round" stroke-linejoin="round"/>
<g id="SVGRepo_iconCarrier"> <style type="text/css"> .linesandangles_een{fill:#ffb400;} </style> <path class="linesandangles_een" d="M23,9.169V6.219l-4-1v-2.5l-6,1.5v2.869C10.462,7.498,9.406,9.439,9.102,11H5v12h4.167 C9.5,24.006,10.361,25,12,25h1v2.781l6,1.5v-1.5l4-1v-1.949c1.006-0.333,2-1.193,2-2.831V12C25,10.361,24.006,9.502,23,9.169z M21,7.781V9h-2V7.281L21,7.781z M15,5.781l2-0.5V9h-2V5.781z M15,25h2v1.719l-2-0.5V25z M21,25.219l-2,0.5V25h2V25.219z M21.992,23 H12c-0.806,0-0.988-0.55-1-1v-1H7v-8.006h3.988L11,12.005c0.005-0.434,0.134-2.369,2-2.881V11h8.988C22.45,11.012,23,11.195,23,12v1 h-2v2h2v1h-2v2h2v1h-2v2h2v1C23,22.803,22.453,22.987,21.992,23z"/> </g>
</svg>