<?xml version="1.0" encoding="utf-8"?><!-- Uploaded to: SVG Repo, www.svgrepo.com, Generator: SVG Repo Mixer Tools -->
<svg width="800px" height="800px" viewBox="0 -0.5 25 25" fill="none" xmlns="http://www.w3.org/2000/svg">
<path fill-rule="evenodd" clip-rule="evenodd" d="M14.4849 5.18684L17.135 7.21184C17.3806 7.40257 17.525 7.70032 17.525 8.01634C17.525 8.33235 17.3806 8.63011 17.135 8.82084L12.9815 11.9948L17.135 15.1688C17.3806 15.3596 17.525 15.6573 17.525 15.9733C17.525 16.2893 17.3806 16.5871 17.135 16.7778L14.4849 18.8028C14.1939 19.021 13.8072 19.0505 13.4879 18.8789C13.1686 18.7073 12.9722 18.3644 12.9815 17.9948V5.99484C12.9722 5.62524 13.1686 5.28241 13.4879 5.11081C13.8072 4.93922 14.1939 4.9687 14.4849 5.18684V5.18684Z" stroke="#000000" stroke-width="1.5" stroke-linecap="round" stroke-linejoin="round"/>
<path d="M7.77496 9.01083L12.9815 11.9948L7.77496 14.9788" stroke="#000000" stroke-width="1.5" stroke-linecap="round" stroke-linejoin="round"/>
</svg>