<svg width="362" height="287" viewBox="0 0 362 287" fill="none" xmlns="http://www.w3.org/2000/svg">
<path d="M43.451 27.1073L37.8773 35.7214H24.1961L21.9159 39.395H12.9219L20.2691 29.0075H33.4436L37.8773 23.1803L34.0769 21.4069L44.8445 19L46.3646 30.0209L43.451 27.1073Z" stroke="#FFD500"/>
<path d="M47.6314 37.3682H38.1306L33.1902 44.4621H20.2691L12.9219 54.9763H22.0426L24.3228 51.4293H38.1306L47.6314 37.3682Z" stroke="#FFD500"/>
<path d="M217.451 17.1073L211.877 25.7214H198.196L195.916 29.395H186.922L194.269 19.0075H207.444L211.877 13.1803L208.077 11.4069L218.844 9L220.365 20.0209L217.451 17.1073Z" stroke="#FFD500"/>
<path d="M221.631 27.3682H212.131L207.19 34.4621H194.269L186.922 44.9763H196.043L198.323 41.4293H212.131L221.631 27.3682Z" stroke="#FFD500"/>
<path d="M41.7479 60.1073L36.1741 68.7214H22.493L20.2128 72.395H11.2188L18.566 62.0075H31.7404L36.1741 56.1803L32.3738 54.4069L43.1414 52L44.6615 63.0209L41.7479 60.1073Z" stroke="#FFD500"/>
<path d="M45.9282 70.3682H36.4275L31.4871 77.4621H18.566L11.2188 87.9763H20.3395L22.6197 84.4293H36.4275L45.9282 70.3682Z" stroke="#FFD500"/>
<path d="M215.748 50.1073L210.174 58.7214H196.493L194.213 62.395H185.219L192.566 52.0075H205.74L210.174 46.1803L206.374 44.4069L217.141 42L218.661 53.0209L215.748 50.1073Z" stroke="#FFD500"/>
<path d="M219.928 60.3682H210.427L205.487 67.4621H192.566L185.219 77.9763H194.339L196.62 74.4293H210.427L219.928 60.3682Z" stroke="#FFD500"/>
<path d="M40.0448 93.1073L34.471 101.721H20.7899L18.5097 105.395H9.51563L16.8629 95.0075H30.0373L34.471 89.1803L30.6707 87.4069L41.4382 85L42.9584 96.0209L40.0448 93.1073Z" stroke="#FFD500"/>
<path d="M44.2251 103.368H34.7243L29.7839 110.462H16.8629L9.51562 120.976H18.6364L20.9165 117.429H34.7243L44.2251 103.368Z" stroke="#FFD500"/>
<path d="M214.045 83.1073L208.471 91.7214H194.79L192.51 95.395H183.516L190.863 85.0075H204.037L208.471 79.1803L204.671 77.4069L215.438 75L216.958 86.0209L214.045 83.1073Z" stroke="#FFD500"/>
<path d="M218.225 93.3682H208.724L203.784 100.462H190.863L183.516 110.976H192.636L194.917 107.429H208.724L218.225 93.3682Z" stroke="#FFD500"/>
<path d="M38.3417 126.107L32.7679 134.721H19.0867L16.8066 138.395H7.8125L15.1598 128.007H28.3342L32.7679 122.18L28.9676 120.407L39.7351 118L41.2552 129.021L38.3417 126.107Z" stroke="#FFD500"/>
<path d="M42.522 136.368H33.0212L28.0808 143.462H15.1598L7.8125 153.976H16.9332L19.2134 150.429H33.0212L42.522 136.368Z" stroke="#FFD500"/>
<path d="M212.342 116.107L206.768 124.721H193.087L190.807 128.395H181.812L189.16 118.007H202.334L206.768 112.18L202.968 110.407L213.735 108L215.255 119.021L212.342 116.107Z" stroke="#FFD500"/>
<path d="M216.522 126.368H207.021L202.081 133.462H189.16L181.812 143.976H190.933L193.213 140.429H207.021L216.522 126.368Z" stroke="#FFD500"/>
<path d="M36.6385 159.107L31.0648 167.721H17.3836L15.1034 171.395H6.10938L13.4566 161.007H26.6311L31.0648 155.18L27.2644 153.407L38.032 151L39.5521 162.021L36.6385 159.107Z" stroke="#FFD500"/>
<path d="M40.8189 169.368H31.3181L26.3777 176.462H13.4566L6.10938 186.976H15.2301L17.5103 183.429H31.3181L40.8189 169.368Z" stroke="#FFD500"/>
<path d="M210.639 149.107L205.065 157.721H191.384L189.103 161.395H180.109L187.457 151.007H200.631L205.065 145.18L201.264 143.407L212.032 141L213.552 152.021L210.639 149.107Z" stroke="#FFD500"/>
<path d="M214.819 159.368H205.318L200.378 166.462H187.457L180.109 176.976H189.23L191.51 173.429H205.318L214.819 159.368Z" stroke="#FFD500"/>
<path d="M34.9354 192.107L29.3616 200.721H15.6805L13.4003 204.395H4.40625L11.7535 194.007H24.9279L29.3616 188.18L25.5613 186.407L36.3289 184L37.849 195.021L34.9354 192.107Z" stroke="#FFD500"/>
<path d="M39.1157 202.368H29.615L24.6746 209.462H11.7535L4.40625 219.976H13.527L15.8072 216.429H29.615L39.1157 202.368Z" stroke="#FFD500"/>
<path d="M208.935 182.107L203.362 190.721H189.68L187.4 194.395H178.406L185.754 184.007H198.928L203.362 178.18L199.561 176.407L210.329 174L211.849 185.021L208.935 182.107Z" stroke="#FFD500"/>
<path d="M213.116 192.368H203.615L198.675 199.462H185.754L178.406 209.976H187.527L189.807 206.429H203.615L213.116 192.368Z" stroke="#FFD500"/>
<path d="M33.2323 225.107L27.6585 233.721H13.9774L11.6972 237.395H2.70313L10.0504 227.007H23.2248L27.6585 221.18L23.8582 219.407L34.6257 217L36.1459 228.021L33.2323 225.107Z" stroke="#FFD500"/>
<path d="M37.4126 235.368H27.9118L22.9714 242.462H10.0504L2.70313 252.976H11.8239L14.104 249.429H27.9118L37.4126 235.368Z" stroke="#FFD500"/>
<path d="M207.232 215.107L201.659 223.721H187.977L185.697 227.395H176.703L184.05 217.007H197.225L201.659 211.18L197.858 209.407L208.626 207L210.146 218.021L207.232 215.107Z" stroke="#FFD500"/>
<path d="M211.413 225.368H201.912L196.971 232.462H184.05L176.703 242.976H185.824L188.104 239.429H201.912L211.413 225.368Z" stroke="#FFD500"/>
<path d="M31.5292 258.107L25.9554 266.721H12.2742L9.99406 270.395H1L8.34726 260.007H21.5217L25.9554 254.18L22.1551 252.407L32.9226 250L34.4427 261.021L31.5292 258.107Z" stroke="#FFD500"/>
<path d="M35.7095 268.368H26.2087L21.2683 275.462H8.34726L1 285.976H10.1207L12.4009 282.429H26.2087L35.7095 268.368Z" stroke="#FFD500"/>
<path d="M205.529 248.107L199.955 256.721H186.274L183.994 260.395H175L182.347 250.007H195.522L199.955 244.18L196.155 242.407L206.923 240L208.443 251.021L205.529 248.107Z" stroke="#FFD500"/>
<path d="M209.709 258.368H200.209L195.268 265.462H182.347L175 275.976H184.121L186.401 272.429H200.209L209.709 258.368Z" stroke="#FFD500"/>
<path d="M77.7479 25.1073L72.1741 33.7214H58.493L56.2128 37.395H47.2188L54.566 27.0075H67.7404L72.1741 21.1803L68.3738 19.4069L79.1414 17L80.6615 28.0209L77.7479 25.1073Z" stroke="#FFD500"/>
<path d="M81.9282 35.3682H72.4275L67.4871 42.4621H54.566L47.2188 52.9763H56.3395L58.6197 49.4293H72.4275L81.9282 35.3682Z" stroke="#FFD500"/>
<path d="M251.748 15.1073L246.174 23.7214H232.493L230.213 27.395H221.219L228.566 17.0075H241.74L246.174 11.1803L242.374 9.40686L253.141 7L254.661 18.0209L251.748 15.1073Z" stroke="#FFD500"/>
<path d="M255.928 25.3682H246.427L241.487 32.4621H228.566L221.219 42.9763H230.339L232.62 39.4293H246.427L255.928 25.3682Z" stroke="#FFD500"/>
<path d="M76.0448 58.1073L70.471 66.7214H56.7899L54.5097 70.395H45.5156L52.8629 60.0075H66.0373L70.471 54.1803L66.6707 52.4069L77.4382 50L78.9584 61.0209L76.0448 58.1073Z" stroke="#FFD500"/>
<path d="M80.2251 68.3682H70.7243L65.7839 75.4621H52.8629L45.5156 85.9763H54.6364L56.9165 82.4293H70.7243L80.2251 68.3682Z" stroke="#FFD500"/>
<path d="M250.045 48.1073L244.471 56.7214H230.79L228.51 60.395H219.516L226.863 50.0075H240.037L244.471 44.1803L240.671 42.4069L251.438 40L252.958 51.0209L250.045 48.1073Z" stroke="#FFD500"/>
<path d="M254.225 58.3682H244.724L239.784 65.4621H226.863L219.516 75.9763H228.636L230.917 72.4293H244.724L254.225 58.3682Z" stroke="#FFD500"/>
<path d="M74.3417 91.1073L68.7679 99.7214H55.0867L52.8066 103.395H43.8125L51.1598 93.0075H64.3342L68.7679 87.1803L64.9676 85.4069L75.7351 83L77.2552 94.0209L74.3417 91.1073Z" stroke="#FFD500"/>
<path d="M78.522 101.368H69.0212L64.0808 108.462H51.1598L43.8125 118.976H52.9332L55.2134 115.429H69.0212L78.522 101.368Z" stroke="#FFD500"/>
<path d="M248.342 81.1073L242.768 89.7214H229.087L226.807 93.395H217.812L225.16 83.0075H238.334L242.768 77.1803L238.968 75.4069L249.735 73L251.255 84.0209L248.342 81.1073Z" stroke="#FFD500"/>
<path d="M252.522 91.3682H243.021L238.081 98.4621H225.16L217.812 108.976H226.933L229.213 105.429H243.021L252.522 91.3682Z" stroke="#FFD500"/>
<path d="M72.6385 124.107L67.0648 132.721H53.3836L51.1034 136.395H42.1094L49.4566 126.007H62.6311L67.0648 120.18L63.2644 118.407L74.032 116L75.5521 127.021L72.6385 124.107Z" stroke="#FFD500"/>
<path d="M76.8189 134.368H67.3181L62.3777 141.462H49.4566L42.1094 151.976H51.2301L53.5103 148.429H67.3181L76.8189 134.368Z" stroke="#FFD500"/>
<path d="M246.639 114.107L241.065 122.721H227.384L225.103 126.395H216.109L223.457 116.007H236.631L241.065 110.18L237.264 108.407L248.032 106L249.552 117.021L246.639 114.107Z" stroke="#FFD500"/>
<path d="M250.819 124.368H241.318L236.378 131.462H223.457L216.109 141.976H225.23L227.51 138.429H241.318L250.819 124.368Z" stroke="#FFD500"/>
<path d="M70.9354 157.107L65.3616 165.721H51.6805L49.4003 169.395H40.4062L47.7535 159.007H60.9279L65.3616 153.18L61.5613 151.407L72.3289 149L73.849 160.021L70.9354 157.107Z" stroke="#FFD500"/>
<path d="M75.1157 167.368H65.615L60.6746 174.462H47.7535L40.4062 184.976H49.527L51.8072 181.429H65.615L75.1157 167.368Z" stroke="#FFD500"/>
<path d="M244.935 147.107L239.362 155.721H225.68L223.4 159.395H214.406L221.754 149.007H234.928L239.362 143.18L235.561 141.407L246.329 139L247.849 150.021L244.935 147.107Z" stroke="#FFD500"/>
<path d="M249.116 157.368H239.615L234.675 164.462H221.754L214.406 174.976H223.527L225.807 171.429H239.615L249.116 157.368Z" stroke="#FFD500"/>
<path d="M69.2323 190.107L63.6585 198.721H49.9774L47.6972 202.395H38.7031L46.0504 192.007H59.2248L63.6585 186.18L59.8582 184.407L70.6257 182L72.1459 193.021L69.2323 190.107Z" stroke="#FFD500"/>
<path d="M73.4126 200.368H63.9118L58.9714 207.462H46.0504L38.7031 217.976H47.8239L50.104 214.429H63.9118L73.4126 200.368Z" stroke="#FFD500"/>
<path d="M243.232 180.107L237.659 188.721H223.977L221.697 192.395H212.703L220.05 182.007H233.225L237.659 176.18L233.858 174.407L244.626 172L246.146 183.021L243.232 180.107Z" stroke="#FFD500"/>
<path d="M247.413 190.368H237.912L232.971 197.462H220.05L212.703 207.976H221.824L224.104 204.429H237.912L247.413 190.368Z" stroke="#FFD500"/>
<path d="M67.5292 223.107L61.9554 231.721H48.2742L45.9941 235.395H37L44.3473 225.007H57.5217L61.9554 219.18L58.1551 217.407L68.9226 215L70.4427 226.021L67.5292 223.107Z" stroke="#FFD500"/>
<path d="M71.7095 233.368H62.2087L57.2683 240.462H44.3473L37 250.976H46.1207L48.4009 247.429H62.2087L71.7095 233.368Z" stroke="#FFD500"/>
<path d="M241.529 213.107L235.955 221.721H222.274L219.994 225.395H211L218.347 215.007H231.522L235.955 209.18L232.155 207.407L242.923 205L244.443 216.021L241.529 213.107Z" stroke="#FFD500"/>
<path d="M245.709 223.368H236.209L231.268 230.462H218.347L211 240.976H220.121L222.401 237.429H236.209L245.709 223.368Z" stroke="#FFD500"/>
<path d="M65.826 256.107L60.2523 264.721H46.5711L44.2909 268.395H35.2969L42.6441 258.007H55.8186L60.2523 252.18L56.4519 250.407L67.2195 248L68.7396 259.021L65.826 256.107Z" stroke="#FFD500"/>
<path d="M70.0064 266.368H60.5056L55.5652 273.462H42.6441L35.2969 283.976H44.4176L46.6978 280.429H60.5056L70.0064 266.368Z" stroke="#FFD500"/>
<path d="M239.826 246.107L234.252 254.721H220.571L218.291 258.395H209.297L216.644 248.007H229.819L234.252 242.18L230.452 240.407L241.219 238L242.74 249.021L239.826 246.107Z" stroke="#FFD500"/>
<path d="M244.006 256.368H234.506L229.565 263.462H216.644L209.297 273.976H218.418L220.698 270.429H234.506L244.006 256.368Z" stroke="#FFD500"/>
<path d="M112.748 23.1073L107.174 31.7214H93.493L91.2128 35.395H82.2188L89.566 25.0075H102.74L107.174 19.1803L103.374 17.4069L114.141 15L115.661 26.0209L112.748 23.1073Z" stroke="#FFD500"/>
<path d="M116.928 33.3682H107.427L102.487 40.4621H89.566L82.2188 50.9763H91.3395L93.6197 47.4293H107.427L116.928 33.3682Z" stroke="#FFD500"/>
<path d="M286.748 13.1073L281.174 21.7214H267.493L265.213 25.395H256.219L263.566 15.0075L276.74 15.0075L281.174 9.18034L277.374 7.40686L288.141 5L289.661 16.0209L286.748 13.1073Z" stroke="#FFD500"/>
<path d="M290.928 23.3682H281.427L276.487 30.4621H263.566L256.219 40.9763H265.339L267.62 37.4293H281.427L290.928 23.3682Z" stroke="#FFD500"/>
<path d="M111.045 56.1073L105.471 64.7214H91.7899L89.5097 68.395H80.5156L87.8629 58.0075H101.037L105.471 52.1803L101.671 50.4069L112.438 48L113.958 59.0209L111.045 56.1073Z" stroke="#FFD500"/>
<path d="M115.225 66.3682H105.724L100.784 73.4621H87.8629L80.5156 83.9763H89.6364L91.9165 80.4293H105.724L115.225 66.3682Z" stroke="#FFD500"/>
<path d="M285.045 46.1073L279.471 54.7214H265.79L263.51 58.395H254.516L261.863 48.0075H275.037L279.471 42.1803L275.671 40.4069L286.438 38L287.958 49.0209L285.045 46.1073Z" stroke="#FFD500"/>
<path d="M289.225 56.3682H279.724L274.784 63.4621H261.863L254.516 73.9763H263.636L265.917 70.4293H279.724L289.225 56.3682Z" stroke="#FFD500"/>
<path d="M109.342 89.1073L103.768 97.7214H90.0867L87.8066 101.395H78.8125L86.1598 91.0075H99.3342L103.768 85.1803L99.9676 83.4069L110.735 81L112.255 92.0209L109.342 89.1073Z" stroke="#FFD500"/>
<path d="M113.522 99.3682H104.021L99.0808 106.462H86.1598L78.8125 116.976H87.9332L90.2134 113.429H104.021L113.522 99.3682Z" stroke="#FFD500"/>
<path d="M283.342 79.1073L277.768 87.7214H264.087L261.807 91.395H252.812L260.16 81.0075H273.334L277.768 75.1803L273.968 73.4069L284.735 71L286.255 82.0209L283.342 79.1073Z" stroke="#FFD500"/>
<path d="M287.522 89.3682H278.021L273.081 96.4621H260.16L252.812 106.976H261.933L264.213 103.429H278.021L287.522 89.3682Z" stroke="#FFD500"/>
<path d="M107.639 122.107L102.065 130.721H88.3836L86.1034 134.395H77.1094L84.4566 124.007H97.6311L102.065 118.18L98.2644 116.407L109.032 114L110.552 125.021L107.639 122.107Z" stroke="#FFD500"/>
<path d="M111.819 132.368H102.318L97.3777 139.462H84.4566L77.1094 149.976H86.2301L88.5103 146.429H102.318L111.819 132.368Z" stroke="#FFD500"/>
<path d="M281.639 112.107L276.065 120.721H262.384L260.103 124.395H251.109L258.457 114.007H271.631L276.065 108.18L272.264 106.407L283.032 104L284.552 115.021L281.639 112.107Z" stroke="#FFD500"/>
<path d="M285.819 122.368H276.318L271.378 129.462H258.457L251.109 139.976H260.23L262.51 136.429H276.318L285.819 122.368Z" stroke="#FFD500"/>
<path d="M105.935 155.107L100.362 163.721H86.6805L84.4003 167.395H75.4062L82.7535 157.007H95.9279L100.362 151.18L96.5613 149.407L107.329 147L108.849 158.021L105.935 155.107Z" stroke="#FFD500"/>
<path d="M110.116 165.368H100.615L95.6746 172.462H82.7535L75.4062 182.976H84.527L86.8072 179.429H100.615L110.116 165.368Z" stroke="#FFD500"/>
<path d="M279.935 145.107L274.362 153.721H260.68L258.4 157.395H249.406L256.754 147.007H269.928L274.362 141.18L270.561 139.407L281.329 137L282.849 148.021L279.935 145.107Z" stroke="#FFD500"/>
<path d="M284.116 155.368H274.615L269.675 162.462H256.754L249.406 172.976H258.527L260.807 169.429H274.615L284.116 155.368Z" stroke="#FFD500"/>
<path d="M104.232 188.107L98.6585 196.721H84.9774L82.6972 200.395H73.7031L81.0504 190.007H94.2248L98.6585 184.18L94.8582 182.407L105.626 180L107.146 191.021L104.232 188.107Z" stroke="#FFD500"/>
<path d="M108.413 198.368H98.9118L93.9714 205.462H81.0504L73.7031 215.976H82.8239L85.104 212.429H98.9118L108.413 198.368Z" stroke="#FFD500"/>
<path d="M278.232 178.107L272.659 186.721H258.977L256.697 190.395H247.703L255.05 180.007H268.225L272.659 174.18L268.858 172.407L279.626 170L281.146 181.021L278.232 178.107Z" stroke="#FFD500"/>
<path d="M282.413 188.368H272.912L267.971 195.462H255.05L247.703 205.976H256.824L259.104 202.429H272.912L282.413 188.368Z" stroke="#FFD500"/>
<path d="M102.529 221.107L96.9554 229.721H83.2742L80.9941 233.395H72L79.3473 223.007H92.5217L96.9554 217.18L93.1551 215.407L103.923 213L105.443 224.021L102.529 221.107Z" stroke="#FFD500"/>
<path d="M106.709 231.368H97.2087L92.2683 238.462H79.3473L72 248.976H81.1207L83.4009 245.429H97.2087L106.709 231.368Z" stroke="#FFD500"/>
<path d="M276.529 211.107L270.955 219.721H257.274L254.994 223.395H246L253.347 213.007H266.522L270.955 207.18L267.155 205.407L277.923 203L279.443 214.021L276.529 211.107Z" stroke="#FFD500"/>
<path d="M280.709 221.368H271.209L266.268 228.462H253.347L246 238.976H255.121L257.401 235.429H271.209L280.709 221.368Z" stroke="#FFD500"/>
<path d="M100.826 254.107L95.2523 262.721H81.5711L79.2909 266.395H70.2969L77.6441 256.007H90.8186L95.2523 250.18L91.4519 248.407L102.219 246L103.74 257.021L100.826 254.107Z" stroke="#FFD500"/>
<path d="M105.006 264.368H95.5056L90.5652 271.462H77.6441L70.2969 281.976H79.4176L81.6978 278.429H95.5056L105.006 264.368Z" stroke="#FFD500"/>
<path d="M274.826 244.107L269.252 252.721H255.571L253.291 256.395H244.297L251.644 246.007H264.819L269.252 240.18L265.452 238.407L276.219 236L277.74 247.021L274.826 244.107Z" stroke="#FFD500"/>
<path d="M279.006 254.368H269.506L264.565 261.462H251.644L244.297 271.976H253.418L255.698 268.429H269.506L279.006 254.368Z" stroke="#FFD500"/>
<path d="M147.748 21.1073L142.174 29.7214H128.493L126.213 33.395H117.219L124.566 23.0075H137.74L142.174 17.1803L138.374 15.4069L149.141 13L150.661 24.0209L147.748 21.1073Z" stroke="#FFD500"/>
<path d="M151.928 31.3682H142.427L137.487 38.4621H124.566L117.219 48.9763H126.339L128.62 45.4293H142.427L151.928 31.3682Z" stroke="#FFD500"/>
<path d="M321.748 11.1073L316.174 19.7214H302.493L300.213 23.395H291.219L298.566 13.0075L311.74 13.0075L316.174 7.18034L312.374 5.40686L323.141 3L324.661 14.0209L321.748 11.1073Z" stroke="#FFD500"/>
<path d="M325.928 21.3682H316.427L311.487 28.4621H298.566L291.219 38.9763H300.339L302.62 35.4293H316.427L325.928 21.3682Z" stroke="#FFD500"/>
<path d="M146.045 54.1073L140.471 62.7214H126.79L124.51 66.395H115.516L122.863 56.0075H136.037L140.471 50.1803L136.671 48.4069L147.438 46L148.958 57.0209L146.045 54.1073Z" stroke="#FFD500"/>
<path d="M150.225 64.3682H140.724L135.784 71.4621H122.863L115.516 81.9763H124.636L126.917 78.4293H140.724L150.225 64.3682Z" stroke="#FFD500"/>
<path d="M320.045 44.1073L314.471 52.7214H300.79L298.51 56.395H289.516L296.863 46.0075H310.037L314.471 40.1803L310.671 38.4069L321.438 36L322.958 47.0209L320.045 44.1073Z" stroke="#FFD500"/>
<path d="M324.225 54.3682H314.724L309.784 61.4621H296.863L289.516 71.9763H298.636L300.917 68.4293H314.724L324.225 54.3682Z" stroke="#FFD500"/>
<path d="M144.342 87.1073L138.768 95.7214H125.087L122.807 99.395H113.812L121.16 89.0075H134.334L138.768 83.1803L134.968 81.4069L145.735 79L147.255 90.0209L144.342 87.1073Z" stroke="#FFD500"/>
<path d="M148.522 97.3682H139.021L134.081 104.462H121.16L113.812 114.976H122.933L125.213 111.429H139.021L148.522 97.3682Z" stroke="#FFD500"/>
<path d="M318.342 77.1073L312.768 85.7214H299.087L296.807 89.395H287.812L295.16 79.0075H308.334L312.768 73.1803L308.968 71.4069L319.735 69L321.255 80.0209L318.342 77.1073Z" stroke="#FFD500"/>
<path d="M322.522 87.3682H313.021L308.081 94.4621H295.16L287.812 104.976H296.933L299.213 101.429H313.021L322.522 87.3682Z" stroke="#FFD500"/>
<path d="M142.639 120.107L137.065 128.721H123.384L121.103 132.395H112.109L119.457 122.007H132.631L137.065 116.18L133.264 114.407L144.032 112L145.552 123.021L142.639 120.107Z" stroke="#FFD500"/>
<path d="M146.819 130.368H137.318L132.378 137.462H119.457L112.109 147.976H121.23L123.51 144.429H137.318L146.819 130.368Z" stroke="#FFD500"/>
<path d="M316.639 110.107L311.065 118.721H297.384L295.103 122.395H286.109L293.457 112.007H306.631L311.065 106.18L307.264 104.407L318.032 102L319.552 113.021L316.639 110.107Z" stroke="#FFD500"/>
<path d="M320.819 120.368H311.318L306.378 127.462H293.457L286.109 137.976H295.23L297.51 134.429H311.318L320.819 120.368Z" stroke="#FFD500"/>
<path d="M140.935 153.107L135.362 161.721H121.68L119.4 165.395H110.406L117.754 155.007H130.928L135.362 149.18L131.561 147.407L142.329 145L143.849 156.021L140.935 153.107Z" stroke="#FFD500"/>
<path d="M145.116 163.368H135.615L130.675 170.462H117.754L110.406 180.976H119.527L121.807 177.429H135.615L145.116 163.368Z" stroke="#FFD500"/>
<path d="M314.935 143.107L309.362 151.721H295.68L293.4 155.395H284.406L291.754 145.007H304.928L309.362 139.18L305.561 137.407L316.329 135L317.849 146.021L314.935 143.107Z" stroke="#FFD500"/>
<path d="M319.116 153.368H309.615L304.675 160.462H291.754L284.406 170.976H293.527L295.807 167.429H309.615L319.116 153.368Z" stroke="#FFD500"/>
<path d="M139.232 186.107L133.659 194.721H119.977L117.697 198.395H108.703L116.05 188.007H129.225L133.659 182.18L129.858 180.407L140.626 178L142.146 189.021L139.232 186.107Z" stroke="#FFD500"/>
<path d="M143.413 196.368H133.912L128.971 203.462H116.05L108.703 213.976H117.824L120.104 210.429H133.912L143.413 196.368Z" stroke="#FFD500"/>
<path d="M313.232 176.107L307.659 184.721H293.977L291.697 188.395H282.703L290.05 178.007H303.225L307.659 172.18L303.858 170.407L314.626 168L316.146 179.021L313.232 176.107Z" stroke="#FFD500"/>
<path d="M317.413 186.368H307.912L302.971 193.462H290.05L282.703 203.976H291.824L294.104 200.429H307.912L317.413 186.368Z" stroke="#FFD500"/>
<path d="M137.529 219.107L131.955 227.721H118.274L115.994 231.395H107L114.347 221.007H127.522L131.955 215.18L128.155 213.407L138.923 211L140.443 222.021L137.529 219.107Z" stroke="#FFD500"/>
<path d="M141.709 229.368H132.209L127.268 236.462H114.347L107 246.976H116.121L118.401 243.429H132.209L141.709 229.368Z" stroke="#FFD500"/>
<path d="M311.529 209.107L305.955 217.721H292.274L289.994 221.395H281L288.347 211.007H301.522L305.955 205.18L302.155 203.407L312.923 201L314.443 212.021L311.529 209.107Z" stroke="#FFD500"/>
<path d="M315.709 219.368H306.209L301.268 226.462H288.347L281 236.976H290.121L292.401 233.429H306.209L315.709 219.368Z" stroke="#FFD500"/>
<path d="M135.826 252.107L130.252 260.721H116.571L114.291 264.395H105.297L112.644 254.007H125.819L130.252 248.18L126.452 246.407L137.219 244L138.74 255.021L135.826 252.107Z" stroke="#FFD500"/>
<path d="M140.006 262.368H130.506L125.565 269.462H112.644L105.297 279.976H114.418L116.698 276.429H130.506L140.006 262.368Z" stroke="#FFD500"/>
<path d="M309.826 242.107L304.252 250.721H290.571L288.291 254.395H279.297L286.644 244.007H299.819L304.252 238.18L300.452 236.407L311.219 234L312.74 245.021L309.826 242.107Z" stroke="#FFD500"/>
<path d="M314.006 252.368H304.506L299.565 259.462H286.644L279.297 269.976H288.418L290.698 266.429H304.506L314.006 252.368Z" stroke="#FFD500"/>
<path d="M182.748 19.1073L177.174 27.7214H163.493L161.213 31.395H152.219L159.566 21.0075H172.74L177.174 15.1803L173.374 13.4069L184.141 11L185.661 22.0209L182.748 19.1073Z" stroke="#FFD500"/>
<path d="M186.928 29.3682H177.427L172.487 36.4621H159.566L152.219 46.9763H161.339L163.62 43.4293H177.427L186.928 29.3682Z" stroke="#FFD500"/>
<path d="M356.748 9.10733L351.174 17.7214H337.493L335.213 21.395H326.219L333.566 11.0075L346.74 11.0075L351.174 5.18034L347.374 3.40686L358.141 1L359.661 12.0209L356.748 9.10733Z" stroke="#FFD500"/>
<path d="M360.928 19.3682H351.427L346.487 26.4621H333.566L326.219 36.9763H335.339L337.62 33.4293H351.427L360.928 19.3682Z" stroke="#FFD500"/>
<path d="M181.045 52.1073L175.471 60.7214H161.79L159.51 64.395H150.516L157.863 54.0075H171.037L175.471 48.1803L171.671 46.4069L182.438 44L183.958 55.0209L181.045 52.1073Z" stroke="#FFD500"/>
<path d="M185.225 62.3682H175.724L170.784 69.4621H157.863L150.516 79.9763H159.636L161.917 76.4293H175.724L185.225 62.3682Z" stroke="#FFD500"/>
<path d="M355.045 42.1073L349.471 50.7214H335.79L333.51 54.395H324.516L331.863 44.0075H345.037L349.471 38.1803L345.671 36.4069L356.438 34L357.958 45.0209L355.045 42.1073Z" stroke="#FFD500"/>
<path d="M359.225 52.3682H349.724L344.784 59.4621H331.863L324.516 69.9763H333.636L335.917 66.4293H349.724L359.225 52.3682Z" stroke="#FFD500"/>
<path d="M179.342 85.1073L173.768 93.7214H160.087L157.807 97.395H148.812L156.16 87.0075H169.334L173.768 81.1803L169.968 79.4069L180.735 77L182.255 88.0209L179.342 85.1073Z" stroke="#FFD500"/>
<path d="M183.522 95.3682H174.021L169.081 102.462H156.16L148.812 112.976H157.933L160.213 109.429H174.021L183.522 95.3682Z" stroke="#FFD500"/>
<path d="M353.342 75.1073L347.768 83.7214H334.087L331.807 87.395H322.812L330.16 77.0075H343.334L347.768 71.1803L343.968 69.4069L354.735 67L356.255 78.0209L353.342 75.1073Z" stroke="#FFD500"/>
<path d="M357.522 85.3682H348.021L343.081 92.4621H330.16L322.812 102.976H331.933L334.213 99.4293H348.021L357.522 85.3682Z" stroke="#FFD500"/>
<path d="M177.639 118.107L172.065 126.721H158.384L156.103 130.395H147.109L154.457 120.007H167.631L172.065 114.18L168.264 112.407L179.032 110L180.552 121.021L177.639 118.107Z" stroke="#FFD500"/>
<path d="M181.819 128.368H172.318L167.378 135.462H154.457L147.109 145.976H156.23L158.51 142.429H172.318L181.819 128.368Z" stroke="#FFD500"/>
<path d="M351.639 108.107L346.065 116.721H332.384L330.103 120.395H321.109L328.457 110.007H341.631L346.065 104.18L342.264 102.407L353.032 100L354.552 111.021L351.639 108.107Z" stroke="#FFD500"/>
<path d="M355.819 118.368H346.318L341.378 125.462H328.457L321.109 135.976H330.23L332.51 132.429H346.318L355.819 118.368Z" stroke="#FFD500"/>
<path d="M175.935 151.107L170.362 159.721H156.68L154.4 163.395H145.406L152.754 153.007H165.928L170.362 147.18L166.561 145.407L177.329 143L178.849 154.021L175.935 151.107Z" stroke="#FFD500"/>
<path d="M180.116 161.368H170.615L165.675 168.462H152.754L145.406 178.976H154.527L156.807 175.429H170.615L180.116 161.368Z" stroke="#FFD500"/>
<path d="M349.935 141.107L344.362 149.721H330.68L328.4 153.395H319.406L326.754 143.007H339.928L344.362 137.18L340.561 135.407L351.329 133L352.849 144.021L349.935 141.107Z" stroke="#FFD500"/>
<path d="M354.116 151.368H344.615L339.675 158.462H326.754L319.406 168.976H328.527L330.807 165.429H344.615L354.116 151.368Z" stroke="#FFD500"/>
<path d="M174.232 184.107L168.659 192.721H154.977L152.697 196.395H143.703L151.05 186.007H164.225L168.659 180.18L164.858 178.407L175.626 176L177.146 187.021L174.232 184.107Z" stroke="#FFD500"/>
<path d="M178.413 194.368H168.912L163.971 201.462H151.05L143.703 211.976H152.824L155.104 208.429H168.912L178.413 194.368Z" stroke="#FFD500"/>
<path d="M348.232 174.107L342.659 182.721H328.977L326.697 186.395H317.703L325.05 176.007H338.225L342.659 170.18L338.858 168.407L349.626 166L351.146 177.021L348.232 174.107Z" stroke="#FFD500"/>
<path d="M352.413 184.368H342.912L337.971 191.462H325.05L317.703 201.976H326.824L329.104 198.429H342.912L352.413 184.368Z" stroke="#FFD500"/>
<path d="M172.529 217.107L166.955 225.721H153.274L150.994 229.395H142L149.347 219.007H162.522L166.955 213.18L163.155 211.407L173.923 209L175.443 220.021L172.529 217.107Z" stroke="#FFD500"/>
<path d="M176.709 227.368H167.209L162.268 234.462H149.347L142 244.976H151.121L153.401 241.429H167.209L176.709 227.368Z" stroke="#FFD500"/>
<path d="M346.529 207.107L340.955 215.721H327.274L324.994 219.395H316L323.347 209.007H336.522L340.955 203.18L337.155 201.407L347.923 199L349.443 210.021L346.529 207.107Z" stroke="#FFD500"/>
<path d="M350.709 217.368H341.209L336.268 224.462H323.347L316 234.976H325.121L327.401 231.429H341.209L350.709 217.368Z" stroke="#FFD500"/>
<path d="M170.826 250.107L165.252 258.721H151.571L149.291 262.395H140.297L147.644 252.007H160.819L165.252 246.18L161.452 244.407L172.219 242L173.74 253.021L170.826 250.107Z" stroke="#FFD500"/>
<path d="M175.006 260.368H165.506L160.565 267.462H147.644L140.297 277.976H149.418L151.698 274.429H165.506L175.006 260.368Z" stroke="#FFD500"/>
<path d="M344.826 240.107L339.252 248.721H325.571L323.291 252.395H314.297L321.644 242.007H334.819L339.252 236.18L335.452 234.407L346.219 232L347.74 243.021L344.826 240.107Z" stroke="#FFD500"/>
<path d="M349.006 250.368H339.506L334.565 257.462H321.644L314.297 267.976H323.418L325.698 264.429H339.506L349.006 250.368Z" stroke="#FFD500"/>
</svg>
