<svg width="80" height="37" viewBox="0 0 80 37" fill="none" xmlns="http://www.w3.org/2000/svg">
<path d="M6.4672 34.3469H6C3.79086 34.3469 2 32.5561 2 30.3469L2 18.7309L2 7.65332C2 5.44418 3.79086 3.65332 6 3.65332H7.24744C8.59619 3.65332 9.85413 4.33303 10.5933 5.46122L19.9928 19.8078V11.1921V7.65332C19.9928 5.44418 21.7837 3.65332 23.9928 3.65332H24.46C26.6691 3.65332 28.46 5.44418 28.46 7.65332V18.7309V30.3469C28.46 32.5561 26.6691 34.3469 24.46 34.3469H22.9904C21.7658 34.3469 20.6094 33.788 19.861 32.8187C18.5832 31.1638 16.5581 28.4984 15.23 26.5389C13.1633 23.4897 10.4672 18.7309 10.4672 18.7309V26.4089V30.3469C10.4672 32.5561 8.67634 34.3469 6.4672 34.3469Z" fill="#FFB400" stroke="#FFB400" stroke-width="1.0584"/>
<path d="M31.4581 34V10.9076H39.7569V34H31.4581ZM35.6075 8.50218C34.485 8.50218 33.5228 8.13134 32.721 7.38966C31.9192 6.64798 31.5183 5.75595 31.5183 4.71359C31.5183 3.67123 31.9192 2.7792 32.721 2.03752C33.5228 1.29584 34.485 0.924998 35.6075 0.924998C36.7401 0.924998 37.7023 1.29584 38.4941 2.03752C39.2959 2.7792 39.6968 3.67123 39.6968 4.71359C39.6968 5.75595 39.2959 6.64798 38.4941 7.38966C37.7023 8.13134 36.7401 8.50218 35.6075 8.50218ZM41.7482 34V3.21018L50.047 3.21018V14.9368H50.1673C50.468 14.155 50.909 13.4384 51.4903 12.7869C52.0716 12.1254 52.7933 11.5992 53.6552 11.2083C54.5172 10.8074 55.5194 10.607 56.662 10.607C58.1855 10.607 59.6338 11.0129 61.0069 11.8247C62.39 12.6366 63.5126 13.9145 64.3745 15.6584C65.2465 17.4024 65.6825 19.6675 65.6825 22.4538C65.6825 25.1199 65.2665 27.3299 64.4346 29.0839C63.6128 30.8378 62.5103 32.1458 61.1271 33.0077C59.754 33.8697 58.2456 34.3007 56.6019 34.3007C55.5194 34.3007 54.5522 34.1253 53.7003 33.7745C52.8584 33.4137 52.1368 32.9276 51.5354 32.3162C50.9441 31.6948 50.488 30.9932 50.1673 30.2114H49.9869V34H41.7482ZM49.8666 22.4538C49.8666 23.5764 50.0119 24.5486 50.3026 25.3704C50.6033 26.1823 51.0242 26.8137 51.5655 27.2647C52.1167 27.7057 52.7732 27.9262 53.5349 27.9262C54.2967 27.9262 54.9431 27.7107 55.4743 27.2798C56.0156 26.8388 56.4265 26.2123 56.7071 25.4005C56.9978 24.5786 57.1431 23.5964 57.1431 22.4538C57.1431 21.3112 56.9978 20.334 56.7071 19.5222C56.4265 18.7003 56.0156 18.0739 55.4743 17.6429C54.9431 17.2019 54.2967 16.9814 53.5349 16.9814C52.7732 16.9814 52.1167 17.2019 51.5655 17.6429C51.0242 18.0739 50.6033 18.7003 50.3026 19.5222C50.0119 20.334 49.8666 21.3112 49.8666 22.4538ZM67.0386 34V10.9076H75.3374V34H67.0386ZM71.188 8.50218C70.0654 8.50218 69.1032 8.13134 68.3014 7.38966C67.4996 6.64798 67.0987 5.75595 67.0987 4.71359C67.0987 3.67123 67.4996 2.7792 68.3014 2.03752C69.1032 1.29584 70.0654 0.924998 71.188 0.924998C72.3205 0.924998 73.2827 1.29584 74.0745 2.03752C74.8763 2.7792 75.2772 3.67123 75.2772 4.71359C75.2772 5.75595 74.8763 6.64798 74.0745 7.38966C73.2827 8.13134 72.3205 8.50218 71.188 8.50218Z" fill="#FFB400"/>
</svg>
